# xmcd CD database file
#
# Track frame offsets:
#	150
#	13116
#	32398
#	45453
#	59057
#	71646
#	83525
#	97308
#	112503
#	125960
#	139004
#	155140
#
# Disc length: 2225 seconds
#
# Revision: 2
# Processed by: cddbd v1.5.1PL2 Copyright (c) Steve Scherf et al.
# Submitted via: CDex 1.60beta1-cs1
#
DISCID=a208af0c
DTITLE=Various Artist - Japanese Hearing Music 琴
DYEAR=1900
DGENRE=Country
TTITLE0=Itsuki no Komoriuta
TTITLE1=Edo Komoriuta
TTITLE2=Kamakura
TTITLE3=Dokokade Haruga
TTITLE4=Hana
TTITLE5=Yuyake koyake
TTITLE6=Hakone Hachiri
TTITLE7=Home, Sweet Home
TTITLE8=Toryanse
TTITLE9=When we Arrive at Home
TTITLE10=Tis The Last Rose of Summer
TTITLE11=Dreaming of Home and Mother
EXTD=
EXTT0=
EXTT1=
EXTT2=
EXTT3=
EXTT4=
EXTT5=
EXTT6=
EXTT7=
EXTT8=
EXTT9=
EXTT10=
EXTT11=
PLAYORDER=
